<svg width="24" height="24" viewBox="0 0 24 24" fill="none" xmlns="http://www.w3.org/2000/svg">
<path fill-rule="evenodd" clip-rule="evenodd" d="M14.4999 1.28833C12.0822 0.724112 9.54474 0.994351 7.30009 2.05511C5.05545 3.11587 3.23565 4.90476 2.13659 7.1309C1.03754 9.35705 0.723873 11.8895 1.24659 14.3165C1.76932 16.7435 3.09768 18.9224 5.0157 20.4987C6.93372 22.075 9.32859 22.9562 11.8109 22.9989C14.2932 23.0416 16.7169 22.2433 18.688 20.7338C19.1265 20.398 19.2097 19.7703 18.874 19.3319C18.5382 18.8934 17.9105 18.8101 17.472 19.1459C15.8593 20.3809 13.8762 21.0341 11.8453 20.9992C9.8143 20.9642 7.85487 20.2433 6.28558 18.9536C4.71629 17.6638 3.62944 15.8812 3.20176 13.8954C2.77408 11.9097 3.03072 9.83767 3.92994 8.01628C4.82917 6.19489 6.3181 4.73126 8.15462 3.86336C9.99115 2.99547 12.0673 2.77436 14.0454 3.236C16.0235 3.69763 17.7873 4.81486 19.05 6.40601C20.3126 7.99714 20.9999 9.96868 21 11.9999V12.9999C21 13.5303 20.7893 14.039 20.4142 14.4141C20.0392 14.7892 19.5304 14.9999 19 14.9999C18.4696 14.9999 17.9609 14.7892 17.5858 14.4141C17.2107 14.039 17 13.5303 17 12.9999V7.99987C17 7.44758 16.5523 6.99987 16 6.99987C15.4478 6.99987 15.0002 7.44739 15 7.99951C14.1643 7.37182 13.1256 6.99986 12 6.99986C9.23858 6.99986 7 9.23844 7 11.9999C7 14.7613 9.23858 16.9999 12 16.9999C13.4881 16.9999 14.8244 16.3498 15.7403 15.3181C15.8687 15.4987 16.0128 15.6695 16.1716 15.8283C16.9217 16.5784 17.9391 16.9999 19 16.9999C20.0609 16.9999 21.0783 16.5784 21.8284 15.8283C22.5786 15.0781 23 14.0607 23 12.9999V11.9998C22.9999 9.51714 22.1599 7.10753 20.6166 5.16279C19.0734 3.21805 16.9176 1.85255 14.4999 1.28833ZM9 11.9999C9 10.343 10.3431 8.99986 12 8.99986C13.6569 8.99986 15 10.343 15 11.9999C15 13.6567 13.6569 14.9999 12 14.9999C10.3431 14.9999 9 13.6567 9 11.9999Z" fill="black"/>
</svg>
