<svg width="24" height="24" viewBox="0 0 24 24" fill="none" xmlns="http://www.w3.org/2000/svg">
<path fill-rule="evenodd" clip-rule="evenodd" d="M11.8321 6.55481C12.1384 6.09528 12.0142 5.47441 11.5547 5.16806C11.0952 4.8617 10.4743 4.98588 10.168 5.44541L6.16795 11.4454C5.96338 11.7523 5.94431 12.1468 6.11833 12.472C6.29235 12.7971 6.63121 13.0001 7 13.0001H11.1315L8.16795 17.4454C7.8616 17.9049 7.98577 18.5258 8.4453 18.8322C8.90483 19.1385 9.5257 19.0143 9.83205 18.5548L13.8321 12.5548C14.0366 12.248 14.0557 11.8534 13.8817 11.5282C13.7077 11.2031 13.3688 11.0001 13 11.0001H8.86852L11.8321 6.55481ZM3 7.00011C2.73478 7.00011 2.48043 7.10546 2.29289 7.293C2.10536 7.48054 2 7.73489 2 8.00011V16.0001C2 16.2653 2.10536 16.5197 2.29289 16.7072C2.48043 16.8947 2.73478 17.0001 3 17.0001H5C5.55228 17.0001 6 17.4478 6 18.0001C6 18.5524 5.55228 19.0001 5 19.0001H3C2.20435 19.0001 1.44129 18.684 0.87868 18.1214C0.316071 17.5588 0 16.7958 0 16.0001V8.00011C0 7.20446 0.316071 6.4414 0.87868 5.87879C1.44129 5.31618 2.20435 5.00011 3 5.00011H6.19C6.74228 5.00011 7.19 5.44782 7.19 6.00011C7.19 6.55239 6.74228 7.00011 6.19 7.00011H3ZM14 6.00011C14 5.44782 14.4477 5.00011 15 5.00011H17C17.7957 5.00011 18.5587 5.31618 19.1213 5.87879C19.6839 6.4414 20 7.20446 20 8.00011V16.0001C20 16.7958 19.6839 17.5588 19.1213 18.1214C18.5587 18.684 17.7957 19.0001 17 19.0001H13.81C13.2577 19.0001 12.81 18.5524 12.81 18.0001C12.81 17.4478 13.2577 17.0001 13.81 17.0001H17C17.2652 17.0001 17.5196 16.8947 17.7071 16.7072C17.8946 16.5197 18 16.2653 18 16.0001V8.00011C18 7.73489 17.8946 7.48054 17.7071 7.293C17.5196 7.10546 17.2652 7.00011 17 7.00011H15C14.4477 7.00011 14 6.55239 14 6.00011ZM23 10.0001C23.5523 10.0001 24 10.4478 24 11.0001V13.0001C24 13.5524 23.5523 14.0001 23 14.0001C22.4477 14.0001 22 13.5524 22 13.0001V11.0001C22 10.4478 22.4477 10.0001 23 10.0001Z" fill="black"/>
</svg>
