<svg width="24" height="24" viewBox="0 0 24 24" fill="none" xmlns="http://www.w3.org/2000/svg">
<g clip-path="url(#clip0_0_121)">
<path fill-rule="evenodd" clip-rule="evenodd" d="M5.87263 3.55867C7.45066 2.97513 9.16068 2.8456 10.8086 3.18481C12.4577 3.52424 13.9784 4.3194 15.1981 5.47994C16.2278 6.45975 17.0081 7.66682 17.4794 9H18.0001C19.5914 9 21.1175 9.63214 22.2428 10.7574C23.368 11.8826 24.0001 13.4087 24.0001 15C24.0001 16.5913 23.368 18.1174 22.2428 19.2426C21.1175 20.3679 19.5914 21 18.0001 21H9.00086C7.31727 21.0013 5.66708 20.5303 4.23781 19.6405C2.80854 18.7508 1.65749 17.478 0.915454 15.9667C0.384217 14.8848 0.0778691 13.7117 0.00905438 12.5179L0.000106812 12.5L0.00742721 12.4888C-0.0178229 12.0247 -0.0071704 11.5575 0.0401273 11.0914C0.210096 9.41641 0.846479 7.82268 1.87697 6.4913C2.90745 5.15993 4.29072 4.14429 5.86959 3.55979C5.8706 3.55942 5.87162 3.55904 5.87263 3.55867ZM6.56394 5.43539C6.45141 5.47705 6.34016 5.52152 6.23029 5.56874C5.27722 5.97832 4.42733 6.59455 3.74202 7.37235C3.64411 7.48347 3.54957 7.59788 3.45856 7.71546C2.71746 8.67296 2.23843 9.80493 2.06595 11C2.05189 11.0974 2.03987 11.1952 2.02991 11.2933C1.91424 12.4332 2.08037 13.5815 2.51035 14.6382C2.57177 14.7892 2.63858 14.9383 2.71072 15.0852C3.21572 16.1137 3.96428 17.0002 4.88825 17.6694C5.02025 17.765 5.15582 17.8561 5.29478 17.9426C6.30457 18.5712 7.45614 18.9311 8.64017 18.991C8.75214 18.9967 8.86441 18.9997 8.97687 19C8.98437 19 8.99187 19 8.99937 19C8.99988 19 9.00038 19 9.00089 19H18.0001C19.061 19 20.0784 18.5786 20.8285 17.8284C21.5787 17.0783 22.0001 16.0609 22.0001 15C22.0001 13.9391 21.5787 12.9217 20.8285 12.1716C20.0784 11.4214 19.061 11 18.0001 11H16.7401C16.2841 11 15.8859 10.6915 15.7719 10.25C15.4445 8.98212 14.7681 7.83149 13.8194 6.92885C12.8708 6.0262 11.688 5.40774 10.4054 5.14374C9.12286 4.87974 7.79195 4.98079 6.56394 5.43539C6.56394 5.43539 6.56394 5.43539 6.56394 5.43539Z" fill="black"/>
</g>
<defs>
<clipPath id="clip0_0_121">
<rect width="24" height="24" fill="white"/>
</clipPath>
</defs>
</svg>
