<svg width="24" height="24" viewBox="0 0 24 24" fill="none" xmlns="http://www.w3.org/2000/svg">
<g clip-path="url(#clip0_0_138)">
<path d="M8.89995 21C5.59995 21 2.59995 19.2 0.999946 16.4C-0.200054 14.3 -0.400054 11.9 0.199946 9.6C0.899946 7.3 2.39995 5.4 4.49995 4.2C4.99995 3.9 5.59995 4 5.89995 4.5C6.09995 5 5.99995 5.6 5.49995 5.9C3.89995 6.8 2.69995 8.3 2.19995 10.1C1.69995 11.9 1.89995 13.8 2.79995 15.4C3.99995 17.7 6.39995 19.1 8.99995 19H17.9999C18.4999 19 18.8999 18.9 19.3999 18.8C19.8999 18.6 20.4999 18.9 20.6999 19.4C20.8999 19.9 20.5999 20.5 20.0999 20.7C19.3999 20.9 18.7999 21.1 18.0999 21.1H8.99995C8.99995 21 8.89995 21 8.89995 21ZM22.5999 18C22.4999 18 22.2999 18 22.1999 17.9C21.6999 17.7 21.4999 17.1 21.6999 16.6C22.5999 14.6 21.5999 12.2 19.5999 11.4C19.0999 11.2 18.5999 11.1 17.9999 11.1H16.6999C16.1999 11.1 15.7999 10.8 15.6999 10.3C14.9999 7.4 12.5999 5.3 9.59995 5C8.99995 5 8.59995 4.5 8.69995 3.9C8.69995 3.4 9.19995 2.9 9.79995 3C13.2999 3.3 16.2999 5.7 17.4999 9H17.9999C18.7999 9 19.5999 9.2 20.2999 9.5C23.2999 10.8 24.7999 14.3 23.4999 17.4C23.3999 17.7 22.9999 18 22.5999 18Z" fill="black"/>
<path d="M22.9999 24C22.6999 24 22.4999 23.9 22.2999 23.7L0.299946 1.7C-0.100054 1.3 -0.100054 0.7 0.299946 0.3C0.699946 -0.1 1.29995 -0.1 1.69995 0.3L23.6999 22.3C24.0999 22.7 24.0999 23.3 23.6999 23.7C23.4999 23.9 23.2999 24 22.9999 24Z" fill="black"/>
</g>
<defs>
<clipPath id="clip0_0_138">
<rect width="24" height="24" fill="white"/>
</clipPath>
</defs>
</svg>
