<svg width="24" height="24" viewBox="0 0 24 24" fill="none" xmlns="http://www.w3.org/2000/svg">
<path d="M20.3627 3H3.63732C3.03423 3 2.56837 3.52984 2.64554 4.12797L4.42485 17.9176C4.47125 18.2772 4.70862 18.5834 5.04524 18.7181L11.6286 21.3514C11.867 21.4468 12.133 21.4468 12.3714 21.3514L18.9548 18.7181C19.2914 18.5834 19.5288 18.2772 19.5752 17.9176L21.3545 4.12797C21.4316 3.52984 20.9658 3 20.3627 3Z" fill="#7C70FF"/>
<path d="M20.3627 3H3.63732C3.03423 3 2.56837 3.52984 2.64554 4.12797L4.42485 17.9176C4.47125 18.2772 4.70862 18.5834 5.04524 18.7181L11.6286 21.3514C11.867 21.4468 12.133 21.4468 12.3714 21.3514L18.9548 18.7181C19.2914 18.5834 19.5288 18.2772 19.5752 17.9176L21.3545 4.12797C21.4316 3.52984 20.9658 3 20.3627 3Z" fill="url(#paint0_radial_111_190)" fill-opacity="0.2"/>
<path fill-rule="evenodd" clip-rule="evenodd" d="M7.74455 7.3448C7.93448 7.1258 8.21011 7 8.5 7H16C16.5523 7 17 7.44772 17 8C17 8.55228 16.5523 9 16 9H9.65301L9.8673 10.5H15.5C15.7868 10.5 16.0599 10.6232 16.2497 10.8382C16.4395 11.0532 16.5279 11.3394 16.4923 11.624L15.9923 15.624C15.9445 16.0062 15.6816 16.3269 15.3162 16.4487L12.3162 17.4487C12.111 17.5171 11.889 17.5171 11.6838 17.4487L8.68377 16.4487C8.27543 16.3126 8 15.9304 8 15.5V14.5C8 13.9477 8.44772 13.5 9 13.5C9.55228 13.5 10 13.9477 10 14.5V14.7792L12 15.4459L14.0859 14.7506L14.3672 12.5H9C8.50235 12.5 8.08043 12.1341 8.01005 11.6414L7.51005 8.14142C7.46905 7.85444 7.55461 7.5638 7.74455 7.3448Z" fill="#7C70FF"/>
<path fill-rule="evenodd" clip-rule="evenodd" d="M7.74455 7.3448C7.93448 7.1258 8.21011 7 8.5 7H16C16.5523 7 17 7.44772 17 8C17 8.55228 16.5523 9 16 9H9.65301L9.8673 10.5H15.5C15.7868 10.5 16.0599 10.6232 16.2497 10.8382C16.4395 11.0532 16.5279 11.3394 16.4923 11.624L15.9923 15.624C15.9445 16.0062 15.6816 16.3269 15.3162 16.4487L12.3162 17.4487C12.111 17.5171 11.889 17.5171 11.6838 17.4487L8.68377 16.4487C8.27543 16.3126 8 15.9304 8 15.5V14.5C8 13.9477 8.44772 13.5 9 13.5C9.55228 13.5 10 13.9477 10 14.5V14.7792L12 15.4459L14.0859 14.7506L14.3672 12.5H9C8.50235 12.5 8.08043 12.1341 8.01005 11.6414L7.51005 8.14142C7.46905 7.85444 7.55461 7.5638 7.74455 7.3448Z" fill="white" fill-opacity="0.8"/>
<defs>
<radialGradient id="paint0_radial_111_190" cx="0" cy="0" r="1" gradientUnits="userSpaceOnUse" gradientTransform="translate(5.40045 20.2875) rotate(-61.6853) scale(15.0744 16.4367)">
<stop stop-color="white"/>
<stop offset="1" stop-color="white" stop-opacity="0"/>
</radialGradient>
</defs>
</svg>
