<svg width="24" height="24" viewBox="0 0 24 24" fill="none" xmlns="http://www.w3.org/2000/svg">
<path d="M20.3627 3H3.63736C3.03427 3 2.56841 3.52984 2.64559 4.12797L4.42489 17.9176C4.47129 18.2772 4.70866 18.5834 5.04528 18.7181L11.6287 21.3514C11.8671 21.4468 12.133 21.4468 12.3714 21.3514L18.9548 18.7181C19.2914 18.5834 19.5288 18.2772 19.5752 17.9176L21.3545 4.12797C21.4317 3.52984 20.9658 3 20.3627 3Z" fill="#7C70FF"/>
<path d="M20.3627 3H3.63736C3.03427 3 2.56841 3.52984 2.64559 4.12797L4.42489 17.9176C4.47129 18.2772 4.70866 18.5834 5.04528 18.7181L11.6287 21.3514C11.8671 21.4468 12.133 21.4468 12.3714 21.3514L18.9548 18.7181C19.2914 18.5834 19.5288 18.2772 19.5752 17.9176L21.3545 4.12797C21.4317 3.52984 20.9658 3 20.3627 3Z" fill="url(#paint0_radial_58_183)" fill-opacity="0.2"/>
<path fill-rule="evenodd" clip-rule="evenodd" d="M7.74455 7.3448C7.93449 7.1258 8.21012 7 8.50001 7H16C16.5523 7 17 7.44772 17 8C17 8.55228 16.5523 9 16 9H9.65302L9.8673 10.5H15.5C15.7868 10.5 16.0599 10.6232 16.2497 10.8382C16.4395 11.0532 16.5279 11.3394 16.4923 11.624L15.9923 15.624C15.9445 16.0062 15.6816 16.3269 15.3162 16.4487L12.3162 17.4487C12.111 17.5171 11.889 17.5171 11.6838 17.4487L8.68378 16.4487C8.27544 16.3126 8.00001 15.9304 8.00001 15.5V14.5C8.00001 13.9477 8.44772 13.5 9.00001 13.5C9.55229 13.5 10 13.9477 10 14.5V14.7792L12 15.4459L14.0859 14.7506L14.3672 12.5H9.00001C8.50236 12.5 8.08044 12.1341 8.01006 11.6414L7.51006 8.14142C7.46906 7.85444 7.55462 7.5638 7.74455 7.3448Z" fill="#7C70FF"/>
<path fill-rule="evenodd" clip-rule="evenodd" d="M7.74455 7.3448C7.93449 7.1258 8.21012 7 8.50001 7H16C16.5523 7 17 7.44772 17 8C17 8.55228 16.5523 9 16 9H9.65302L9.8673 10.5H15.5C15.7868 10.5 16.0599 10.6232 16.2497 10.8382C16.4395 11.0532 16.5279 11.3394 16.4923 11.624L15.9923 15.624C15.9445 16.0062 15.6816 16.3269 15.3162 16.4487L12.3162 17.4487C12.111 17.5171 11.889 17.5171 11.6838 17.4487L8.68378 16.4487C8.27544 16.3126 8.00001 15.9304 8.00001 15.5V14.5C8.00001 13.9477 8.44772 13.5 9.00001 13.5C9.55229 13.5 10 13.9477 10 14.5V14.7792L12 15.4459L14.0859 14.7506L14.3672 12.5H9.00001C8.50236 12.5 8.08044 12.1341 8.01006 11.6414L7.51006 8.14142C7.46906 7.85444 7.55462 7.5638 7.74455 7.3448Z" fill="white" fill-opacity="0.8"/>
<defs>
<radialGradient id="paint0_radial_58_183" cx="0" cy="0" r="1" gradientUnits="userSpaceOnUse" gradientTransform="translate(5.40049 20.2875) rotate(-61.6853) scale(15.0744 16.4367)">
<stop stop-color="white"/>
<stop offset="1" stop-color="white" stop-opacity="0"/>
</radialGradient>
</defs>
</svg>
