<svg width="48" height="48" viewBox="0 0 48 48" fill="none" xmlns="http://www.w3.org/2000/svg">
<rect width="48" height="48" rx="24" fill="#08ABFC" fill-opacity="0.08"/>
<path d="M24 21.3333V24" stroke="#08ABFC" stroke-width="3.33" stroke-linecap="square" stroke-linejoin="round"/>
<path d="M24 21.3333V24" stroke="white" stroke-opacity="0.5" stroke-width="3.33" stroke-linecap="square" stroke-linejoin="round"/>
<path fill-rule="evenodd" clip-rule="evenodd" d="M20.6667 25.665C19.3771 25.665 18.3317 26.7104 18.3317 28C18.3317 28.9195 17.5862 29.665 16.6667 29.665C15.7471 29.665 15.0017 28.9195 15.0017 28C15.0017 24.8713 17.538 22.335 20.6667 22.335H27.3333C30.462 22.335 32.9983 24.8713 32.9983 28C32.9983 28.9195 32.2529 29.665 31.3333 29.665C30.4138 29.665 29.6683 28.9195 29.6683 28C29.6683 26.7104 28.6229 25.665 27.3333 25.665H20.6667Z" fill="#08ABFC"/>
<path fill-rule="evenodd" clip-rule="evenodd" d="M20.6667 25.665C19.3771 25.665 18.3317 26.7104 18.3317 28C18.3317 28.9195 17.5862 29.665 16.6667 29.665C15.7471 29.665 15.0017 28.9195 15.0017 28C15.0017 24.8713 17.538 22.335 20.6667 22.335H27.3333C30.462 22.335 32.9983 24.8713 32.9983 28C32.9983 28.9195 32.2529 29.665 31.3333 29.665C30.4138 29.665 29.6683 28.9195 29.6683 28C29.6683 26.7104 28.6229 25.665 27.3333 25.665H20.6667Z" fill="white" fill-opacity="0.5"/>
<path d="M25.6667 12H22.3333C20.6765 12 19.3333 13.3431 19.3333 15C19.3333 16.6569 20.6765 18 22.3333 18H25.6667C27.3235 18 28.6667 16.6569 28.6667 15C28.6667 13.3431 27.3235 12 25.6667 12Z" fill="#08ABFC"/>
<path d="M25.6667 12H22.3333C20.6765 12 19.3333 13.3431 19.3333 15C19.3333 16.6569 20.6765 18 22.3333 18H25.6667C27.3235 18 28.6667 16.6569 28.6667 15C28.6667 13.3431 27.3235 12 25.6667 12Z" fill="url(#paint0_linear_45_601)" fill-opacity="0.2"/>
<path fill-rule="evenodd" clip-rule="evenodd" d="M17.9983 15C17.9983 12.6059 19.9392 10.665 22.3333 10.665H25.6667C28.0608 10.665 30.0017 12.6059 30.0017 15C30.0017 17.3942 28.0608 19.335 25.6667 19.335H22.3333C19.9392 19.335 17.9983 17.3942 17.9983 15ZM22.3333 13.335C21.4138 13.335 20.6683 14.0805 20.6683 15C20.6683 15.9196 21.4138 16.665 22.3333 16.665H25.6667C26.5862 16.665 27.3317 15.9196 27.3317 15C27.3317 14.0805 26.5862 13.335 25.6667 13.335H22.3333Z" fill="#08ABFC"/>
<path fill-rule="evenodd" clip-rule="evenodd" d="M17.9983 15C17.9983 12.6059 19.9392 10.665 22.3333 10.665H25.6667C28.0608 10.665 30.0017 12.6059 30.0017 15C30.0017 17.3942 28.0608 19.335 25.6667 19.335H22.3333C19.9392 19.335 17.9983 17.3942 17.9983 15ZM22.3333 13.335C21.4138 13.335 20.6683 14.0805 20.6683 15C20.6683 15.9196 21.4138 16.665 22.3333 16.665H25.6667C26.5862 16.665 27.3317 15.9196 27.3317 15C27.3317 14.0805 26.5862 13.335 25.6667 13.335H22.3333Z" fill="url(#paint1_linear_45_601)" fill-opacity="0.2"/>
<path d="M18.3333 30H15C13.3431 30 12 31.3431 12 33C12 34.6569 13.3431 36 15 36H18.3333C19.9902 36 21.3333 34.6569 21.3333 33C21.3333 31.3431 19.9902 30 18.3333 30Z" fill="#08ABFC"/>
<path d="M18.3333 30H15C13.3431 30 12 31.3431 12 33C12 34.6569 13.3431 36 15 36H18.3333C19.9902 36 21.3333 34.6569 21.3333 33C21.3333 31.3431 19.9902 30 18.3333 30Z" fill="url(#paint2_linear_45_601)" fill-opacity="0.2"/>
<path fill-rule="evenodd" clip-rule="evenodd" d="M10.665 33C10.665 30.6059 12.6058 28.665 15 28.665H18.3333C20.7275 28.665 22.6683 30.6059 22.6683 33C22.6683 35.3942 20.7275 37.335 18.3333 37.335H15C12.6058 37.335 10.665 35.3942 10.665 33ZM15 31.335C14.0804 31.335 13.335 32.0805 13.335 33C13.335 33.9196 14.0804 34.665 15 34.665H18.3333C19.2529 34.665 19.9983 33.9196 19.9983 33C19.9983 32.0805 19.2529 31.335 18.3333 31.335H15Z" fill="#08ABFC"/>
<path fill-rule="evenodd" clip-rule="evenodd" d="M10.665 33C10.665 30.6059 12.6058 28.665 15 28.665H18.3333C20.7275 28.665 22.6683 30.6059 22.6683 33C22.6683 35.3942 20.7275 37.335 18.3333 37.335H15C12.6058 37.335 10.665 35.3942 10.665 33ZM15 31.335C14.0804 31.335 13.335 32.0805 13.335 33C13.335 33.9196 14.0804 34.665 15 34.665H18.3333C19.2529 34.665 19.9983 33.9196 19.9983 33C19.9983 32.0805 19.2529 31.335 18.3333 31.335H15Z" fill="url(#paint3_linear_45_601)" fill-opacity="0.2"/>
<path d="M33 30H29.6667C28.0098 30 26.6667 31.3431 26.6667 33C26.6667 34.6569 28.0098 36 29.6667 36H33C34.6569 36 36 34.6569 36 33C36 31.3431 34.6569 30 33 30Z" fill="#08ABFC"/>
<path d="M33 30H29.6667C28.0098 30 26.6667 31.3431 26.6667 33C26.6667 34.6569 28.0098 36 29.6667 36H33C34.6569 36 36 34.6569 36 33C36 31.3431 34.6569 30 33 30Z" fill="url(#paint4_linear_45_601)" fill-opacity="0.2"/>
<path fill-rule="evenodd" clip-rule="evenodd" d="M25.3317 33C25.3317 30.6059 27.2725 28.665 29.6667 28.665H33C35.3942 28.665 37.335 30.6059 37.335 33C37.335 35.3942 35.3942 37.335 33 37.335H29.6667C27.2725 37.335 25.3317 35.3942 25.3317 33ZM29.6667 31.335C28.7471 31.335 28.0017 32.0805 28.0017 33C28.0017 33.9196 28.7471 34.665 29.6667 34.665H33C33.9196 34.665 34.665 33.9196 34.665 33C34.665 32.0805 33.9196 31.335 33 31.335H29.6667Z" fill="#08ABFC"/>
<path fill-rule="evenodd" clip-rule="evenodd" d="M25.3317 33C25.3317 30.6059 27.2725 28.665 29.6667 28.665H33C35.3942 28.665 37.335 30.6059 37.335 33C37.335 35.3942 35.3942 37.335 33 37.335H29.6667C27.2725 37.335 25.3317 35.3942 25.3317 33ZM29.6667 31.335C28.7471 31.335 28.0017 32.0805 28.0017 33C28.0017 33.9196 28.7471 34.665 29.6667 34.665H33C33.9196 34.665 34.665 33.9196 34.665 33C34.665 32.0805 33.9196 31.335 33 31.335H29.6667Z" fill="url(#paint5_linear_45_601)" fill-opacity="0.2"/>
<defs>
<linearGradient id="paint0_linear_45_601" x1="30" y1="10.6667" x2="18" y2="19.3333" gradientUnits="userSpaceOnUse">
<stop stop-color="white" stop-opacity="0"/>
<stop offset="1" stop-color="white"/>
</linearGradient>
<linearGradient id="paint1_linear_45_601" x1="30" y1="10.6667" x2="18" y2="19.3333" gradientUnits="userSpaceOnUse">
<stop stop-color="white" stop-opacity="0"/>
<stop offset="1" stop-color="white"/>
</linearGradient>
<linearGradient id="paint2_linear_45_601" x1="22.6667" y1="28.6667" x2="10.6667" y2="37.3333" gradientUnits="userSpaceOnUse">
<stop stop-color="white" stop-opacity="0"/>
<stop offset="1" stop-color="white"/>
</linearGradient>
<linearGradient id="paint3_linear_45_601" x1="22.6667" y1="28.6667" x2="10.6667" y2="37.3333" gradientUnits="userSpaceOnUse">
<stop stop-color="white" stop-opacity="0"/>
<stop offset="1" stop-color="white"/>
</linearGradient>
<linearGradient id="paint4_linear_45_601" x1="37.3333" y1="28.6667" x2="25.3333" y2="37.3333" gradientUnits="userSpaceOnUse">
<stop stop-color="white" stop-opacity="0"/>
<stop offset="1" stop-color="white"/>
</linearGradient>
<linearGradient id="paint5_linear_45_601" x1="37.3333" y1="28.6667" x2="25.3333" y2="37.3333" gradientUnits="userSpaceOnUse">
<stop stop-color="white" stop-opacity="0"/>
<stop offset="1" stop-color="white"/>
</linearGradient>
</defs>
</svg>
