<svg width="24" height="24" viewBox="0 0 24 24" fill="none" xmlns="http://www.w3.org/2000/svg">
<rect width="24" height="24" rx="12" fill="#08ABFC" fill-opacity="0.08"/>
<path d="M12 10.6665V11.9998" stroke="#08ABFC" stroke-width="1.665" stroke-linecap="square" stroke-linejoin="round"/>
<path d="M12 10.6665V11.9998" stroke="white" stroke-opacity="0.5" stroke-width="1.665" stroke-linecap="square" stroke-linejoin="round"/>
<path fill-rule="evenodd" clip-rule="evenodd" d="M10.3332 12.8325C9.68844 12.8325 9.16573 13.3552 9.16573 14C9.16573 14.4598 8.79301 14.8325 8.33323 14.8325C7.87346 14.8325 7.50073 14.4598 7.50073 14C7.50073 12.4356 8.76889 11.1675 10.3332 11.1675H13.6666C15.2309 11.1675 16.4991 12.4356 16.4991 14C16.4991 14.4598 16.1263 14.8325 15.6666 14.8325C15.2068 14.8325 14.8341 14.4598 14.8341 14C14.8341 13.3552 14.3114 12.8325 13.6666 12.8325H10.3332Z" fill="#08ABFC"/>
<path fill-rule="evenodd" clip-rule="evenodd" d="M10.3332 12.8325C9.68844 12.8325 9.16573 13.3552 9.16573 14C9.16573 14.4598 8.79301 14.8325 8.33323 14.8325C7.87346 14.8325 7.50073 14.4598 7.50073 14C7.50073 12.4356 8.76889 11.1675 10.3332 11.1675H13.6666C15.2309 11.1675 16.4991 12.4356 16.4991 14C16.4991 14.4598 16.1263 14.8325 15.6666 14.8325C15.2068 14.8325 14.8341 14.4598 14.8341 14C14.8341 13.3552 14.3114 12.8325 13.6666 12.8325H10.3332Z" fill="white" fill-opacity="0.5"/>
<path d="M12.8334 6H11.1667C10.3383 6 9.66675 6.67157 9.66675 7.5C9.66675 8.32843 10.3383 9 11.1667 9H12.8334C13.6618 9 14.3334 8.32843 14.3334 7.5C14.3334 6.67157 13.6618 6 12.8334 6Z" fill="#08ABFC"/>
<path d="M12.8334 6H11.1667C10.3383 6 9.66675 6.67157 9.66675 7.5C9.66675 8.32843 10.3383 9 11.1667 9H12.8334C13.6618 9 14.3334 8.32843 14.3334 7.5C14.3334 6.67157 13.6618 6 12.8334 6Z" fill="url(#paint0_linear_45_601)" fill-opacity="0.2"/>
<path fill-rule="evenodd" clip-rule="evenodd" d="M8.99927 7.50002C8.99927 6.30294 9.96969 5.33252 11.1668 5.33252H12.8334C14.0305 5.33252 15.0009 6.30294 15.0009 7.50002C15.0009 8.6971 14.0305 9.66752 12.8334 9.66752H11.1668C9.96969 9.66752 8.99927 8.6971 8.99927 7.50002ZM11.1668 6.66752C10.707 6.66752 10.3343 7.04024 10.3343 7.50002C10.3343 7.9598 10.707 8.33252 11.1668 8.33252H12.8334C13.2932 8.33252 13.6659 7.9598 13.6659 7.50002C13.6659 7.04024 13.2932 6.66752 12.8334 6.66752H11.1668Z" fill="#08ABFC"/>
<path fill-rule="evenodd" clip-rule="evenodd" d="M8.99927 7.50002C8.99927 6.30294 9.96969 5.33252 11.1668 5.33252H12.8334C14.0305 5.33252 15.0009 6.30294 15.0009 7.50002C15.0009 8.6971 14.0305 9.66752 12.8334 9.66752H11.1668C9.96969 9.66752 8.99927 8.6971 8.99927 7.50002ZM11.1668 6.66752C10.707 6.66752 10.3343 7.04024 10.3343 7.50002C10.3343 7.9598 10.707 8.33252 11.1668 8.33252H12.8334C13.2932 8.33252 13.6659 7.9598 13.6659 7.50002C13.6659 7.04024 13.2932 6.66752 12.8334 6.66752H11.1668Z" fill="url(#paint1_linear_45_601)" fill-opacity="0.2"/>
<path d="M9.16667 15H7.5C6.67157 15 6 15.6716 6 16.5C6 17.3284 6.67157 18 7.5 18H9.16667C9.99509 18 10.6667 17.3284 10.6667 16.5C10.6667 15.6716 9.99509 15 9.16667 15Z" fill="#08ABFC"/>
<path d="M9.16667 15H7.5C6.67157 15 6 15.6716 6 16.5C6 17.3284 6.67157 18 7.5 18H9.16667C9.99509 18 10.6667 17.3284 10.6667 16.5C10.6667 15.6716 9.99509 15 9.16667 15Z" fill="url(#paint2_linear_45_601)" fill-opacity="0.2"/>
<path fill-rule="evenodd" clip-rule="evenodd" d="M5.33252 16.5C5.33252 15.3029 6.30294 14.3325 7.50002 14.3325H9.16669C10.3638 14.3325 11.3342 15.3029 11.3342 16.5C11.3342 17.6971 10.3638 18.6675 9.16669 18.6675H7.50002C6.30294 18.6675 5.33252 17.6971 5.33252 16.5ZM7.50002 15.6675C7.04024 15.6675 6.66752 16.0402 6.66752 16.5C6.66752 16.9598 7.04024 17.3325 7.50002 17.3325H9.16669C9.62646 17.3325 9.99919 16.9598 9.99919 16.5C9.99919 16.0402 9.62646 15.6675 9.16669 15.6675H7.50002Z" fill="#08ABFC"/>
<path fill-rule="evenodd" clip-rule="evenodd" d="M5.33252 16.5C5.33252 15.3029 6.30294 14.3325 7.50002 14.3325H9.16669C10.3638 14.3325 11.3342 15.3029 11.3342 16.5C11.3342 17.6971 10.3638 18.6675 9.16669 18.6675H7.50002C6.30294 18.6675 5.33252 17.6971 5.33252 16.5ZM7.50002 15.6675C7.04024 15.6675 6.66752 16.0402 6.66752 16.5C6.66752 16.9598 7.04024 17.3325 7.50002 17.3325H9.16669C9.62646 17.3325 9.99919 16.9598 9.99919 16.5C9.99919 16.0402 9.62646 15.6675 9.16669 15.6675H7.50002Z" fill="url(#paint3_linear_45_601)" fill-opacity="0.2"/>
<path d="M16.4999 15H14.8333C14.0048 15 13.3333 15.6716 13.3333 16.5C13.3333 17.3284 14.0048 18 14.8333 18H16.4999C17.3283 18 17.9999 17.3284 17.9999 16.5C17.9999 15.6716 17.3283 15 16.4999 15Z" fill="#08ABFC"/>
<path d="M16.4999 15H14.8333C14.0048 15 13.3333 15.6716 13.3333 16.5C13.3333 17.3284 14.0048 18 14.8333 18H16.4999C17.3283 18 17.9999 17.3284 17.9999 16.5C17.9999 15.6716 17.3283 15 16.4999 15Z" fill="url(#paint4_linear_45_601)" fill-opacity="0.2"/>
<path fill-rule="evenodd" clip-rule="evenodd" d="M12.6658 16.5C12.6658 15.3029 13.6362 14.3325 14.8333 14.3325H16.4999C17.697 14.3325 18.6674 15.3029 18.6674 16.5C18.6674 17.6971 17.697 18.6675 16.4999 18.6675H14.8333C13.6362 18.6675 12.6658 17.6971 12.6658 16.5ZM14.8333 15.6675C14.3735 15.6675 14.0008 16.0402 14.0008 16.5C14.0008 16.9598 14.3735 17.3325 14.8333 17.3325H16.4999C16.9597 17.3325 17.3324 16.9598 17.3324 16.5C17.3324 16.0402 16.9597 15.6675 16.4999 15.6675H14.8333Z" fill="#08ABFC"/>
<path fill-rule="evenodd" clip-rule="evenodd" d="M12.6658 16.5C12.6658 15.3029 13.6362 14.3325 14.8333 14.3325H16.4999C17.697 14.3325 18.6674 15.3029 18.6674 16.5C18.6674 17.6971 17.697 18.6675 16.4999 18.6675H14.8333C13.6362 18.6675 12.6658 17.6971 12.6658 16.5ZM14.8333 15.6675C14.3735 15.6675 14.0008 16.0402 14.0008 16.5C14.0008 16.9598 14.3735 17.3325 14.8333 17.3325H16.4999C16.9597 17.3325 17.3324 16.9598 17.3324 16.5C17.3324 16.0402 16.9597 15.6675 16.4999 15.6675H14.8333Z" fill="url(#paint5_linear_45_601)" fill-opacity="0.2"/>
<defs>
<linearGradient id="paint0_linear_45_601" x1="15.0001" y1="5.33333" x2="9.00008" y2="9.66667" gradientUnits="userSpaceOnUse">
<stop stop-color="white" stop-opacity="0"/>
<stop offset="1" stop-color="white"/>
</linearGradient>
<linearGradient id="paint1_linear_45_601" x1="15.0001" y1="5.33335" x2="9.0001" y2="9.66669" gradientUnits="userSpaceOnUse">
<stop stop-color="white" stop-opacity="0"/>
<stop offset="1" stop-color="white"/>
</linearGradient>
<linearGradient id="paint2_linear_45_601" x1="11.3333" y1="14.3333" x2="5.33333" y2="18.6667" gradientUnits="userSpaceOnUse">
<stop stop-color="white" stop-opacity="0"/>
<stop offset="1" stop-color="white"/>
</linearGradient>
<linearGradient id="paint3_linear_45_601" x1="11.3334" y1="14.3334" x2="5.33335" y2="18.6667" gradientUnits="userSpaceOnUse">
<stop stop-color="white" stop-opacity="0"/>
<stop offset="1" stop-color="white"/>
</linearGradient>
<linearGradient id="paint4_linear_45_601" x1="18.6666" y1="14.3333" x2="12.6666" y2="18.6667" gradientUnits="userSpaceOnUse">
<stop stop-color="white" stop-opacity="0"/>
<stop offset="1" stop-color="white"/>
</linearGradient>
<linearGradient id="paint5_linear_45_601" x1="18.6666" y1="14.3334" x2="12.6666" y2="18.6667" gradientUnits="userSpaceOnUse">
<stop stop-color="white" stop-opacity="0"/>
<stop offset="1" stop-color="white"/>
</linearGradient>
</defs>
</svg>
