<svg width="24" height="24" viewBox="0 0 24 24" fill="none" xmlns="http://www.w3.org/2000/svg">
<path d="M12.1808 21.9912H3.38393C2.62054 21.9912 2 21.3707 2 20.6073V12.7881H12.1808V21.9912Z" fill="#0FBD91"/>
<path d="M12.1808 21.9912H3.38393C2.62054 21.9912 2 21.3707 2 20.6073V12.7881H12.1808V21.9912Z" fill="white" fill-opacity="0.4"/>
<path d="M12.1808 21.9912H3.38393C2.62054 21.9912 2 21.3707 2 20.6073V12.7881H12.1808V21.9912Z" fill="url(#paint0_linear_45_557)" fill-opacity="0.4"/>
<path fill-rule="evenodd" clip-rule="evenodd" d="M3.38393 21.7912H11.9808V12.9881H2.2V20.6073C2.2 21.2602 2.73099 21.7912 3.38393 21.7912ZM12.1808 21.9912V12.7881H2V20.6073C2 21.3707 2.62054 21.9912 3.38393 21.9912H12.1808Z" fill="white" fill-opacity="0.4"/>
<path d="M2 12C2 17.5228 6.47715 22 12 22C17.5228 22 22 17.5228 22 12C22 6.47715 17.5228 2 12 2C6.47715 2 2 6.47715 2 12Z" fill="#0FBD91"/>
<path d="M2 12C2 17.5228 6.47715 22 12 22C17.5228 22 22 17.5228 22 12C22 6.47715 17.5228 2 12 2C6.47715 2 2 6.47715 2 12Z" fill="url(#paint1_linear_45_557)" fill-opacity="0.2"/>
<path d="M6 10C6.55228 10 7 10.4477 7 11L7 14C7 14.5523 6.55228 15 6 15C5.44772 15 5 14.5523 5 14L5 11C5 10.4477 5.44772 10 6 10Z" fill="#0FBD91"/>
<path d="M6 10C6.55228 10 7 10.4477 7 11L7 14C7 14.5523 6.55228 15 6 15C5.44772 15 5 14.5523 5 14L5 11C5 10.4477 5.44772 10 6 10Z" fill="white" fill-opacity="0.6"/>
<path d="M10 8C10.5523 8 11 8.44772 11 9L11 15C11 15.5523 10.5523 16 10 16C9.44772 16 9 15.5523 9 15L9 9C9 8.44772 9.44772 8 10 8Z" fill="#0FBD91"/>
<path d="M10 8C10.5523 8 11 8.44772 11 9L11 15C11 15.5523 10.5523 16 10 16C9.44772 16 9 15.5523 9 15L9 9C9 8.44772 9.44772 8 10 8Z" fill="white" fill-opacity="0.8"/>
<path d="M14 9C14.5523 9 15 9.44772 15 10L15 14C15 14.5523 14.5523 15 14 15C13.4477 15 13 14.5523 13 14L13 10C13 9.44772 13.4477 9 14 9Z" fill="#0FBD91"/>
<path d="M14 9C14.5523 9 15 9.44772 15 10L15 14C15 14.5523 14.5523 15 14 15C13.4477 15 13 14.5523 13 14L13 10C13 9.44772 13.4477 9 14 9Z" fill="white" fill-opacity="0.6"/>
<path d="M18 11C18.5523 11 19 11.4477 19 12L19 13C19 13.5523 18.5523 14 18 14C17.4477 14 17 13.5523 17 13L17 12C17 11.4477 17.4477 11 18 11Z" fill="#0FBD91"/>
<path d="M18 11C18.5523 11 19 11.4477 19 12L19 13C19 13.5523 18.5523 14 18 14C17.4477 14 17 13.5523 17 13L17 12C17 11.4477 17.4477 11 18 11Z" fill="white" fill-opacity="0.6"/>
<defs>
<linearGradient id="paint0_linear_45_557" x1="2" y1="22" x2="5" y2="19" gradientUnits="userSpaceOnUse">
<stop stop-color="white"/>
<stop offset="1" stop-color="white" stop-opacity="0"/>
</linearGradient>
<linearGradient id="paint1_linear_45_557" x1="4.50391" y1="20.4297" x2="18.6764" y2="7.45032" gradientUnits="userSpaceOnUse">
<stop stop-color="white"/>
<stop offset="1" stop-color="white" stop-opacity="0"/>
</linearGradient>
</defs>
</svg>
