<svg width="24" height="24" viewBox="0 0 24 24" fill="none" xmlns="http://www.w3.org/2000/svg">
<rect width="24" height="24" rx="12" fill="#08ABFC" fill-opacity="0.08"/>
<path d="M12 10.6667V12" stroke="#08ABFC" stroke-width="1.665" stroke-linecap="square" stroke-linejoin="round"/>
<path d="M12 10.6667V12" stroke="white" stroke-opacity="0.5" stroke-width="1.665" stroke-linecap="square" stroke-linejoin="round"/>
<path fill-rule="evenodd" clip-rule="evenodd" d="M10.3333 12.8325C9.68854 12.8325 9.16583 13.3552 9.16583 14C9.16583 14.4598 8.79311 14.8325 8.33333 14.8325C7.87355 14.8325 7.50083 14.4598 7.50083 14C7.50083 12.4357 8.76898 11.1675 10.3333 11.1675H13.6667C15.231 11.1675 16.4992 12.4357 16.4992 14C16.4992 14.4598 16.1264 14.8325 15.6667 14.8325C15.2069 14.8325 14.8342 14.4598 14.8342 14C14.8342 13.3552 14.3115 12.8325 13.6667 12.8325H10.3333Z" fill="#08ABFC"/>
<path fill-rule="evenodd" clip-rule="evenodd" d="M10.3333 12.8325C9.68854 12.8325 9.16583 13.3552 9.16583 14C9.16583 14.4598 8.79311 14.8325 8.33333 14.8325C7.87355 14.8325 7.50083 14.4598 7.50083 14C7.50083 12.4357 8.76898 11.1675 10.3333 11.1675H13.6667C15.231 11.1675 16.4992 12.4357 16.4992 14C16.4992 14.4598 16.1264 14.8325 15.6667 14.8325C15.2069 14.8325 14.8342 14.4598 14.8342 14C14.8342 13.3552 14.3115 12.8325 13.6667 12.8325H10.3333Z" fill="white" fill-opacity="0.5"/>
<path d="M12.8333 6H11.1667C10.3382 6 9.66667 6.67157 9.66667 7.5C9.66667 8.32843 10.3382 9 11.1667 9H12.8333C13.6618 9 14.3333 8.32843 14.3333 7.5C14.3333 6.67157 13.6618 6 12.8333 6Z" fill="#08ABFC"/>
<path d="M12.8333 6H11.1667C10.3382 6 9.66667 6.67157 9.66667 7.5C9.66667 8.32843 10.3382 9 11.1667 9H12.8333C13.6618 9 14.3333 8.32843 14.3333 7.5C14.3333 6.67157 13.6618 6 12.8333 6Z" fill="url(#paint0_linear_45_601)" fill-opacity="0.2"/>
<path fill-rule="evenodd" clip-rule="evenodd" d="M8.99917 7.49999C8.99917 6.30291 9.96959 5.33249 11.1667 5.33249H12.8333C14.0304 5.33249 15.0008 6.30291 15.0008 7.49999C15.0008 8.69707 14.0304 9.66749 12.8333 9.66749H11.1667C9.96959 9.66749 8.99917 8.69707 8.99917 7.49999ZM11.1667 6.66749C10.7069 6.66749 10.3342 7.04021 10.3342 7.49999C10.3342 7.95977 10.7069 8.33249 11.1667 8.33249H12.8333C13.2931 8.33249 13.6658 7.95977 13.6658 7.49999C13.6658 7.04021 13.2931 6.66749 12.8333 6.66749H11.1667Z" fill="#08ABFC"/>
<path fill-rule="evenodd" clip-rule="evenodd" d="M8.99917 7.49999C8.99917 6.30291 9.96959 5.33249 11.1667 5.33249H12.8333C14.0304 5.33249 15.0008 6.30291 15.0008 7.49999C15.0008 8.69707 14.0304 9.66749 12.8333 9.66749H11.1667C9.96959 9.66749 8.99917 8.69707 8.99917 7.49999ZM11.1667 6.66749C10.7069 6.66749 10.3342 7.04021 10.3342 7.49999C10.3342 7.95977 10.7069 8.33249 11.1667 8.33249H12.8333C13.2931 8.33249 13.6658 7.95977 13.6658 7.49999C13.6658 7.04021 13.2931 6.66749 12.8333 6.66749H11.1667Z" fill="url(#paint1_linear_45_601)" fill-opacity="0.2"/>
<path d="M9.16667 15H7.5C6.67157 15 6 15.6716 6 16.5C6 17.3284 6.67157 18 7.5 18H9.16667C9.99509 18 10.6667 17.3284 10.6667 16.5C10.6667 15.6716 9.99509 15 9.16667 15Z" fill="#08ABFC"/>
<path d="M9.16667 15H7.5C6.67157 15 6 15.6716 6 16.5C6 17.3284 6.67157 18 7.5 18H9.16667C9.99509 18 10.6667 17.3284 10.6667 16.5C10.6667 15.6716 9.99509 15 9.16667 15Z" fill="url(#paint2_linear_45_601)" fill-opacity="0.2"/>
<path fill-rule="evenodd" clip-rule="evenodd" d="M5.3325 16.5C5.3325 15.3029 6.30293 14.3325 7.5 14.3325H9.16667C10.3637 14.3325 11.3342 15.3029 11.3342 16.5C11.3342 17.6971 10.3637 18.6675 9.16667 18.6675H7.5C6.30293 18.6675 5.3325 17.6971 5.3325 16.5ZM7.5 15.6675C7.04023 15.6675 6.6675 16.0402 6.6675 16.5C6.6675 16.9598 7.04023 17.3325 7.5 17.3325H9.16667C9.62645 17.3325 9.99917 16.9598 9.99917 16.5C9.99917 16.0402 9.62645 15.6675 9.16667 15.6675H7.5Z" fill="#08ABFC"/>
<path fill-rule="evenodd" clip-rule="evenodd" d="M5.3325 16.5C5.3325 15.3029 6.30293 14.3325 7.5 14.3325H9.16667C10.3637 14.3325 11.3342 15.3029 11.3342 16.5C11.3342 17.6971 10.3637 18.6675 9.16667 18.6675H7.5C6.30293 18.6675 5.3325 17.6971 5.3325 16.5ZM7.5 15.6675C7.04023 15.6675 6.6675 16.0402 6.6675 16.5C6.6675 16.9598 7.04023 17.3325 7.5 17.3325H9.16667C9.62645 17.3325 9.99917 16.9598 9.99917 16.5C9.99917 16.0402 9.62645 15.6675 9.16667 15.6675H7.5Z" fill="url(#paint3_linear_45_601)" fill-opacity="0.2"/>
<path d="M16.5 15H14.8333C14.0049 15 13.3333 15.6716 13.3333 16.5C13.3333 17.3284 14.0049 18 14.8333 18H16.5C17.3284 18 18 17.3284 18 16.5C18 15.6716 17.3284 15 16.5 15Z" fill="#08ABFC"/>
<path d="M16.5 15H14.8333C14.0049 15 13.3333 15.6716 13.3333 16.5C13.3333 17.3284 14.0049 18 14.8333 18H16.5C17.3284 18 18 17.3284 18 16.5C18 15.6716 17.3284 15 16.5 15Z" fill="url(#paint4_linear_45_601)" fill-opacity="0.2"/>
<path fill-rule="evenodd" clip-rule="evenodd" d="M12.6658 16.5C12.6658 15.3029 13.6363 14.3325 14.8333 14.3325H16.5C17.6971 14.3325 18.6675 15.3029 18.6675 16.5C18.6675 17.6971 17.6971 18.6675 16.5 18.6675H14.8333C13.6363 18.6675 12.6658 17.6971 12.6658 16.5ZM14.8333 15.6675C14.3736 15.6675 14.0008 16.0402 14.0008 16.5C14.0008 16.9598 14.3736 17.3325 14.8333 17.3325H16.5C16.9598 17.3325 17.3325 16.9598 17.3325 16.5C17.3325 16.0402 16.9598 15.6675 16.5 15.6675H14.8333Z" fill="#08ABFC"/>
<path fill-rule="evenodd" clip-rule="evenodd" d="M12.6658 16.5C12.6658 15.3029 13.6363 14.3325 14.8333 14.3325H16.5C17.6971 14.3325 18.6675 15.3029 18.6675 16.5C18.6675 17.6971 17.6971 18.6675 16.5 18.6675H14.8333C13.6363 18.6675 12.6658 17.6971 12.6658 16.5ZM14.8333 15.6675C14.3736 15.6675 14.0008 16.0402 14.0008 16.5C14.0008 16.9598 14.3736 17.3325 14.8333 17.3325H16.5C16.9598 17.3325 17.3325 16.9598 17.3325 16.5C17.3325 16.0402 16.9598 15.6675 16.5 15.6675H14.8333Z" fill="url(#paint5_linear_45_601)" fill-opacity="0.2"/>
<defs>
<linearGradient id="paint0_linear_45_601" x1="15" y1="5.33333" x2="9.00001" y2="9.66667" gradientUnits="userSpaceOnUse">
<stop stop-color="white" stop-opacity="0"/>
<stop offset="1" stop-color="white"/>
</linearGradient>
<linearGradient id="paint1_linear_45_601" x1="15" y1="5.33332" x2="9" y2="9.66666" gradientUnits="userSpaceOnUse">
<stop stop-color="white" stop-opacity="0"/>
<stop offset="1" stop-color="white"/>
</linearGradient>
<linearGradient id="paint2_linear_45_601" x1="11.3333" y1="14.3333" x2="5.33333" y2="18.6667" gradientUnits="userSpaceOnUse">
<stop stop-color="white" stop-opacity="0"/>
<stop offset="1" stop-color="white"/>
</linearGradient>
<linearGradient id="paint3_linear_45_601" x1="11.3333" y1="14.3333" x2="5.33334" y2="18.6667" gradientUnits="userSpaceOnUse">
<stop stop-color="white" stop-opacity="0"/>
<stop offset="1" stop-color="white"/>
</linearGradient>
<linearGradient id="paint4_linear_45_601" x1="18.6667" y1="14.3333" x2="12.6667" y2="18.6667" gradientUnits="userSpaceOnUse">
<stop stop-color="white" stop-opacity="0"/>
<stop offset="1" stop-color="white"/>
</linearGradient>
<linearGradient id="paint5_linear_45_601" x1="18.6667" y1="14.3333" x2="12.6667" y2="18.6667" gradientUnits="userSpaceOnUse">
<stop stop-color="white" stop-opacity="0"/>
<stop offset="1" stop-color="white"/>
</linearGradient>
</defs>
</svg>
