<svg width="24" height="24" viewBox="0 0 24 24" fill="none" xmlns="http://www.w3.org/2000/svg">
<path d="M7.12277 14L2.92438 16.143C2.35854 16.4318 2.35854 17.377 2.92438 17.6658L10.8796 21.7263C11.5944 22.0912 12.4056 22.0912 13.1204 21.7263L21.0756 17.6658C21.6415 17.377 21.6415 16.4318 21.0756 16.143L16.8772 14L13.1204 15.9176C12.4056 16.2824 11.5944 16.2824 10.8796 15.9176L7.12277 14Z" fill="#08ABFC"/>
<path d="M7.12277 14L2.92438 16.143C2.35854 16.4318 2.35854 17.377 2.92438 17.6658L10.8796 21.7263C11.5944 22.0912 12.4056 22.0912 13.1204 21.7263L21.0756 17.6658C21.6415 17.377 21.6415 16.4318 21.0756 16.143L16.8772 14L13.1204 15.9176C12.4056 16.2824 11.5944 16.2824 10.8796 15.9176L7.12277 14Z" fill="white" fill-opacity="0.6"/>
<path d="M7.12277 14L2.92438 16.143C2.35854 16.4318 2.35854 17.377 2.92438 17.6658L10.8796 21.7263C11.5944 22.0912 12.4056 22.0912 13.1204 21.7263L21.0756 17.6658C21.6415 17.377 21.6415 16.4318 21.0756 16.143L16.8772 14L13.1204 15.9176C12.4056 16.2824 11.5944 16.2824 10.8796 15.9176L7.12277 14Z" fill="url(#paint0_linear_45_602)" fill-opacity="0.4"/>
<path d="M2.92438 11.2529L10.8796 7.26852C11.5944 6.91049 12.4056 6.91049 13.1204 7.26852L21.0756 11.2529C21.6415 11.5363 21.6415 12.4637 21.0756 12.7471L13.1204 16.7315C12.4056 17.0895 11.5944 17.0895 10.8796 16.7315L2.92438 12.7471C2.35854 12.4637 2.35854 11.5363 2.92438 11.2529Z" fill="#08ABFC"/>
<path d="M2.92438 11.2529L10.8796 7.26852C11.5944 6.91049 12.4056 6.91049 13.1204 7.26852L21.0756 11.2529C21.6415 11.5363 21.6415 12.4637 21.0756 12.7471L13.1204 16.7315C12.4056 17.0895 11.5944 17.0895 10.8796 16.7315L2.92438 12.7471C2.35854 12.4637 2.35854 11.5363 2.92438 11.2529Z" fill="white" fill-opacity="0.4"/>
<path d="M2.92438 11.2529L10.8796 7.26852C11.5944 6.91049 12.4056 6.91049 13.1204 7.26852L21.0756 11.2529C21.6415 11.5363 21.6415 12.4637 21.0756 12.7471L13.1204 16.7315C12.4056 17.0895 11.5944 17.0895 10.8796 16.7315L2.92438 12.7471C2.35854 12.4637 2.35854 11.5363 2.92438 11.2529Z" fill="url(#paint1_linear_45_602)" fill-opacity="0.2"/>
<path d="M2.92438 6.25288L10.8796 2.26852C11.5944 1.91049 12.4056 1.91049 13.1204 2.26852L21.0756 6.25288C21.6415 6.53628 21.6415 7.46372 21.0756 7.74712L13.1204 11.7315C12.4056 12.0895 11.5944 12.0895 10.8796 11.7315L2.92438 7.74712C2.35854 7.46372 2.35854 6.53628 2.92438 6.25288Z" fill="#08ABFC"/>
<path d="M2.92438 6.25288L10.8796 2.26852C11.5944 1.91049 12.4056 1.91049 13.1204 2.26852L21.0756 6.25288C21.6415 6.53628 21.6415 7.46372 21.0756 7.74712L13.1204 11.7315C12.4056 12.0895 11.5944 12.0895 10.8796 11.7315L2.92438 7.74712C2.35854 7.46372 2.35854 6.53628 2.92438 6.25288Z" fill="url(#paint2_linear_45_602)" fill-opacity="0.2"/>
<defs>
<linearGradient id="paint0_linear_45_602" x1="12" y1="12.8771" x2="12" y2="21.768" gradientUnits="userSpaceOnUse">
<stop stop-color="white"/>
<stop offset="1" stop-color="white" stop-opacity="0"/>
</linearGradient>
<linearGradient id="paint1_linear_45_602" x1="12" y1="7" x2="12" y2="17" gradientUnits="userSpaceOnUse">
<stop stop-color="white"/>
<stop offset="1" stop-color="white" stop-opacity="0"/>
</linearGradient>
<linearGradient id="paint2_linear_45_602" x1="12" y1="2" x2="12" y2="12" gradientUnits="userSpaceOnUse">
<stop stop-color="white"/>
<stop offset="1" stop-color="white" stop-opacity="0"/>
</linearGradient>
</defs>
</svg>
